<?xml version="1.0" encoding="UTF-8"?>
<svg xmlns="http://www.w3.org/2000/svg" xmlns:xlink="http://www.w3.org/1999/xlink"
     width="3780" height="1417" viewBox="0 -1417 3780 1417">
<defs>
</defs>
<rect x="0" y="-1417" width="21" height="1417" fill="#2171b5" />
<rect x="21" y="-1417" width="45" height="1417" fill="#6baed6" />
<rect x="66" y="-1417" width="67" height="1417" fill="#4292c6" />
<rect x="133" y="-1417" width="23" height="1417" fill="#2171b5" />
<rect x="156" y="-1417" width="44" height="1417" fill="#08519c" />
<rect x="200" y="-1417" width="23" height="1417" fill="#4292c6" />
<rect x="223" y="-1417" width="44" height="1417" fill="#2171b5" />
<rect x="267" y="-1417" width="23" height="1417" fill="#08306b" />
<rect x="290" y="-1417" width="22" height="1417" fill="#4292c6" />
<rect x="312" y="-1417" width="22" height="1417" fill="#08519c" />
<rect x="334" y="-1417" width="68" height="1417" fill="#4292c6" />
<rect x="402" y="-1417" width="22" height="1417" fill="#6baed6" />
<rect x="424" y="-1417" width="45" height="1417" fill="#4292c6" />
<rect x="469" y="-1417" width="22" height="1417" fill="#2171b5" />
<rect x="491" y="-1417" width="22" height="1417" fill="#6baed6" />
<rect x="513" y="-1417" width="23" height="1417" fill="#4292c6" />
<rect x="536" y="-1417" width="67" height="1417" fill="#2171b5" />
<rect x="603" y="-1417" width="22" height="1417" fill="#9ecae1" />
<rect x="625" y="-1417" width="23" height="1417" fill="#c6dbef" />
<rect x="648" y="-1417" width="22" height="1417" fill="#6baed6" />
<rect x="670" y="-1417" width="22" height="1417" fill="#4292c6" />
<rect x="692" y="-1417" width="45" height="1417" fill="#6baed6" />
<rect x="737" y="-1417" width="22" height="1417" fill="#4292c6" />
<rect x="759" y="-1417" width="90" height="1417" fill="#2171b5" />
<rect x="849" y="-1417" width="22" height="1417" fill="#4292c6" />
<rect x="871" y="-1417" width="23" height="1417" fill="#6baed6" />
<rect x="894" y="-1417" width="22" height="1417" fill="#08519c" />
<rect x="916" y="-1417" width="45" height="1417" fill="#2171b5" />
<rect x="961" y="-1417" width="22" height="1417" fill="#08519c" />
<rect x="983" y="-1417" width="45" height="1417" fill="#2171b5" />
<rect x="1028" y="-1417" width="45" height="1417" fill="#6baed6" />
<rect x="1073" y="-1417" width="22" height="1417" fill="#2171b5" />
<rect x="1095" y="-1417" width="22" height="1417" fill="#4292c6" />
<rect x="1117" y="-1417" width="23" height="1417" fill="#6baed6" />
<rect x="1140" y="-1417" width="22" height="1417" fill="#4292c6" />
<rect x="1162" y="-1417" width="22" height="1417" fill="#2171b5" />
<rect x="1184" y="-1417" width="23" height="1417" fill="#08519c" />
<rect x="1207" y="-1417" width="22" height="1417" fill="#08306b" />
<rect x="1229" y="-1417" width="23" height="1417" fill="#2171b5" />
<rect x="1252" y="-1417" width="22" height="1417" fill="#4292c6" />
<rect x="1274" y="-1417" width="22" height="1417" fill="#08519c" />
<rect x="1296" y="-1417" width="45" height="1417" fill="#08306b" />
<rect x="1341" y="-1417" width="22" height="1417" fill="#08519c" />
<rect x="1363" y="-1417" width="23" height="1417" fill="#08306b" />
<rect x="1386" y="-1417" width="44" height="1417" fill="#08519c" />
<rect x="1430" y="-1417" width="23" height="1417" fill="#4292c6" />
<rect x="1453" y="-1417" width="22" height="1417" fill="#6baed6" />
<rect x="1475" y="-1417" width="23" height="1417" fill="#2171b5" />
<rect x="1498" y="-1417" width="22" height="1417" fill="#08519c" />
<rect x="1520" y="-1417" width="22" height="1417" fill="#2171b5" />
<rect x="1542" y="-1417" width="67" height="1417" fill="#4292c6" />
<rect x="1609" y="-1417" width="23" height="1417" fill="#2171b5" />
<rect x="1632" y="-1417" width="22" height="1417" fill="#4292c6" />
<rect x="1654" y="-1417" width="22" height="1417" fill="#2171b5" />
<rect x="1676" y="-1417" width="23" height="1417" fill="#4292c6" />
<rect x="1699" y="-1417" width="22" height="1417" fill="#6baed6" />
<rect x="1721" y="-1417" width="45" height="1417" fill="#4292c6" />
<rect x="1766" y="-1417" width="22" height="1417" fill="#2171b5" />
<rect x="1788" y="-1417" width="67" height="1417" fill="#6baed6" />
<rect x="1855" y="-1417" width="23" height="1417" fill="#2171b5" />
<rect x="1878" y="-1417" width="22" height="1417" fill="#6baed6" />
<rect x="1900" y="-1417" width="23" height="1417" fill="#4292c6" />
<rect x="1923" y="-1417" width="22" height="1417" fill="#6baed6" />
<rect x="1945" y="-1417" width="67" height="1417" fill="#9ecae1" />
<rect x="2012" y="-1417" width="22" height="1417" fill="#c6dbef" />
<rect x="2034" y="-1417" width="23" height="1417" fill="#deebf7" />
<rect x="2057" y="-1417" width="44" height="1417" fill="#c6dbef" />
<rect x="2101" y="-1417" width="23" height="1417" fill="#deebf7" />
<rect x="2124" y="-1417" width="22" height="1417" fill="#c6dbef" />
<rect x="2146" y="-1417" width="45" height="1417" fill="#9ecae1" />
<rect x="2191" y="-1417" width="45" height="1417" fill="#6baed6" />
<rect x="2236" y="-1417" width="22" height="1417" fill="#4292c6" />
<rect x="2258" y="-1417" width="45" height="1417" fill="#9ecae1" />
<rect x="2303" y="-1417" width="22" height="1417" fill="#c6dbef" />
<rect x="2325" y="-1417" width="22" height="1417" fill="#6baed6" />
<rect x="2347" y="-1417" width="45" height="1417" fill="#4292c6" />
<rect x="2392" y="-1417" width="23" height="1417" fill="#9ecae1" />
<rect x="2415" y="-1417" width="22" height="1417" fill="#c6dbef" />
<rect x="2437" y="-1417" width="45" height="1417" fill="#9ecae1" />
<rect x="2482" y="-1417" width="67" height="1417" fill="#c6dbef" />
<rect x="2549" y="-1417" width="22" height="1417" fill="#4292c6" />
<rect x="2571" y="-1417" width="23" height="1417" fill="#6baed6" />
<rect x="2594" y="-1417" width="44" height="1417" fill="#9ecae1" />
<rect x="2638" y="-1417" width="23" height="1417" fill="#6baed6" />
<rect x="2661" y="-1417" width="22" height="1417" fill="#c6dbef" />
<rect x="2683" y="-1417" width="22" height="1417" fill="#9ecae1" />
<rect x="2705" y="-1417" width="23" height="1417" fill="#6baed6" />
<rect x="2728" y="-1417" width="22" height="1417" fill="#9ecae1" />
<rect x="2750" y="-1417" width="22" height="1417" fill="#c6dbef" />
<rect x="2772" y="-1417" width="45" height="1417" fill="#6baed6" />
<rect x="2817" y="-1417" width="23" height="1417" fill="#4292c6" />
<rect x="2840" y="-1417" width="22" height="1417" fill="#c6dbef" />
<rect x="2862" y="-1417" width="22" height="1417" fill="#9ecae1" />
<rect x="2884" y="-1417" width="23" height="1417" fill="#deebf7" />
<rect x="2907" y="-1417" width="44" height="1417" fill="#fee0d2" />
<rect x="2951" y="-1417" width="23" height="1417" fill="#c6dbef" />
<rect x="2974" y="-1417" width="22" height="1417" fill="#fee0d2" />
<rect x="2996" y="-1417" width="45" height="1417" fill="#c6dbef" />
<rect x="3041" y="-1417" width="22" height="1417" fill="#deebf7" />
<rect x="3063" y="-1417" width="23" height="1417" fill="#fee0d2" />
<rect x="3086" y="-1417" width="22" height="1417" fill="#fcbba1" />
<rect x="3108" y="-1417" width="22" height="1417" fill="#fee0d2" />
<rect x="3130" y="-1417" width="45" height="1417" fill="#fcbba1" />
<rect x="3175" y="-1417" width="45" height="1417" fill="#deebf7" />
<rect x="3220" y="-1417" width="22" height="1417" fill="#fee0d2" />
<rect x="3242" y="-1417" width="23" height="1417" fill="#fc9272" />
<rect x="3265" y="-1417" width="22" height="1417" fill="#fee0d2" />
<rect x="3287" y="-1417" width="22" height="1417" fill="#fc9272" />
<rect x="3309" y="-1417" width="23" height="1417" fill="#fb6a4a" />
<rect x="3332" y="-1417" width="44" height="1417" fill="#fcbba1" />
<rect x="3376" y="-1417" width="23" height="1417" fill="#fc9272" />
<rect x="3399" y="-1417" width="67" height="1417" fill="#fb6a4a" />
<rect x="3466" y="-1417" width="45" height="1417" fill="#ef3b2c" />
<rect x="3511" y="-1417" width="22" height="1417" fill="#fb6a4a" />
<rect x="3533" y="-1417" width="22" height="1417" fill="#fc9272" />
<rect x="3555" y="-1417" width="23" height="1417" fill="#fb6a4a" />
<rect x="3578" y="-1417" width="22" height="1417" fill="#ef3b2c" />
<rect x="3600" y="-1417" width="45" height="1417" fill="#fb6a4a" />
<rect x="3645" y="-1417" width="44" height="1417" fill="#ef3b2c" />
<rect x="3689" y="-1417" width="23" height="1417" fill="#a50f15" />
<rect x="3712" y="-1417" width="22" height="1417" fill="#67000d" />
<rect x="3734" y="-1417" width="23" height="1417" fill="#a50f15" />
<rect x="3757" y="-1417" width="22" height="1417" fill="#cb181d" />
</svg>